HIERARCHY
ROOT Root
{
  OFFSET 0.0 0.0 0.0
  CHANNELS 6 Xposition Yposition Zposition Zrotation Yrotation Xrotation
  JOINT Hips
  {
    OFFSET 0.0 100.0 0.0
    CHANNELS 6 Xposition Yposition Zposition Zrotation Yrotation Xrotation
    JOINT Spine1
    {
      OFFSET -0.013727 5.003763 -0.053727
      CHANNELS 3 Zrotation Yrotation Xrotation
      JOINT Spine2
      {
        OFFSET -0.0 7.125301 -0.029825
        CHANNELS 3 Zrotation Yrotation Xrotation
        JOINT Chest
        {
          OFFSET -1e-06 7.550063 -0.815971
          CHANNELS 3 Zrotation Yrotation Xrotation
          JOINT Neck1
          {
            OFFSET -0.181677 26.311295 -0.553348
            CHANNELS 3 Zrotation Yrotation Xrotation
            JOINT Neck2
            {
              OFFSET -3e-06 7.709397 2.302585
              CHANNELS 3 Zrotation Yrotation Xrotation
              JOINT Head
              {
                OFFSET -5e-06 6.128916 1.953709
                CHANNELS 3 Zrotation Yrotation Xrotation
                JOINT HeadEnd
                {
                  OFFSET 0.003598 16.065403 -1.835379
                  CHANNELS 3 Zrotation Yrotation Xrotation
                }
                JOINT Jaw
                {
                  OFFSET 0.002637 0.475592 3.094941
                  CHANNELS 3 Zrotation Yrotation Xrotation
                }
                JOINT LeftEye
                {
                  OFFSET 3.206381 5.380205 7.586883
                  CHANNELS 3 Zrotation Yrotation Xrotation
                }
                JOINT RightEye
                {
                  OFFSET -3.22244 5.361869 7.558234
                  CHANNELS 3 Zrotation Yrotation Xrotation
                }
              }
            }
          }
          JOINT LeftShoulder
          {
            OFFSET 1.621652 23.237164 5.113413
            CHANNELS 3 Zrotation Yrotation Xrotation
            JOINT LeftArm
            {
              OFFSET 14.919846 2e-06 -5.502326
              CHANNELS 3 Zrotation Yrotation Xrotation
              JOINT LeftForeArm
              {
                OFFSET 28.739307 0.0 -0.002588
                CHANNELS 3 Zrotation Yrotation Xrotation
                JOINT LeftHand
                {
                  OFFSET 27.093981 -1e-06 0.002609
                  CHANNELS 3 Zrotation Yrotation Xrotation
                  JOINT LeftHandThumb1
                  {
                    OFFSET 2.276482 -1.392045 3.191413
                    CHANNELS 3 Zrotation Yrotation Xrotation
                    JOINT LeftHandThumb2
                    {
                      OFFSET 4.012836 -1.828127 1.641654
                      CHANNELS 3 Zrotation Yrotation Xrotation
                      JOINT LeftHandThumb3
                      {
                        OFFSET 2.798515 0.0 -3e-06
                        CHANNELS 3 Zrotation Yrotation Xrotation
                        JOINT LeftHandThumbEnd
                        {
                          OFFSET 3.180793 -4e-06 4e-06
                          CHANNELS 3 Zrotation Yrotation Xrotation
                        }
                      }
                    }
                  }
                  JOINT LeftHandIndex1
                  {
                    OFFSET 3.247555 -0.531998 2.296169
                    CHANNELS 3 Zrotation Yrotation Xrotation
                    JOINT LeftHandIndex2
                    {
                      OFFSET 6.364578 0.01206 0.1786
                      CHANNELS 3 Zrotation Yrotation Xrotation
                      JOINT LeftHandIndex3
                      {
                        OFFSET 3.662364 0.0 0.0
                        CHANNELS 3 Zrotation Yrotation Xrotation
                        JOINT LeftHandIndex4
                        {
                          OFFSET 2.329242 4e-06 4e-06
                          CHANNELS 3 Zrotation Yrotation Xrotation
                          JOINT LeftHandIndexEnd
                          {
                            OFFSET 2.759615 -0.180537 -0.113024
                            CHANNELS 3 Zrotation Yrotation Xrotation
                          }
                        }
                      }
                    }
                  }
                  JOINT LeftHandMiddle1
                  {
                    OFFSET 3.163495 0.240981 1.000332
                    CHANNELS 3 Zrotation Yrotation Xrotation
                    JOINT LeftHandMiddle2
                    {
                      OFFSET 6.19078 -0.259278 -1.002548
                      CHANNELS 3 Zrotation Yrotation Xrotation
                      JOINT LeftHandMiddle3
                      {
                        OFFSET 4.35652 -4e-06 -1e-06
                        CHANNELS 3 Zrotation Yrotation Xrotation
                        JOINT LeftHandMiddle4
                        {
                          OFFSET 2.996877 -8e-06 0.0
                          CHANNELS 3 Zrotation Yrotation Xrotation
                          JOINT LeftHandMiddleEnd
                          {
                            OFFSET 2.304287 -0.294569 -0.031741
                            CHANNELS 3 Zrotation Yrotation Xrotation
                          }
                        }
                      }
                    }
                  }
                  JOINT LeftHandRing1
                  {
                    OFFSET 2.882643 -0.053652 -0.322543
                    CHANNELS 3 Zrotation Yrotation Xrotation
                    JOINT LeftHandRing2
                    {
                      OFFSET 5.854541 -0.486202 -1.373841
                      CHANNELS 3 Zrotation Yrotation Xrotation
                      JOINT LeftHandRing3
                      {
                        OFFSET 4.350578 0.0 3e-06
                        CHANNELS 3 Zrotation Yrotation Xrotation
                        JOINT LeftHandRing4
                        {
                          OFFSET 2.651321 7e-06 2e-06
                          CHANNELS 3 Zrotation Yrotation Xrotation
                          JOINT LeftHandRingEnd
                          {
                            OFFSET 1.936105 0.077687 -7.1e-05
                            CHANNELS 3 Zrotation Yrotation Xrotation
                          }
                        }
                      }
                    }
                  }
                  JOINT LeftHandPinky1
                  {
                    OFFSET 2.8655 -0.310005 -1.600378
                    CHANNELS 3 Zrotation Yrotation Xrotation
                    JOINT LeftHandPinky2
                    {
                      OFFSET 5.087849 -1.331141 -1.77123
                      CHANNELS 3 Zrotation Yrotation Xrotation
                      JOINT LeftHandPinky3
                      {
                        OFFSET 3.070974 4e-06 0.0
                        CHANNELS 3 Zrotation Yrotation Xrotation
                        JOINT LeftHandPinky4
                        {
                          OFFSET 1.549672 0.0 1e-06
                          CHANNELS 3 Zrotation Yrotation Xrotation
                          JOINT LeftHandPinkyEnd
                          {
                            OFFSET 1.944893 -0.157802 0.057219
                            CHANNELS 3 Zrotation Yrotation Xrotation
                          }
                        }
                      }
                    }
                  }
                }
              }
            }
          }
          JOINT RightShoulder
          {
            OFFSET -1.380118 23.180309 5.214158
            CHANNELS 3 Zrotation Yrotation Xrotation
            JOINT RightArm
            {
              OFFSET -15.037196 1.2e-05 -5.545604
              CHANNELS 3 Zrotation Yrotation Xrotation
              JOINT RightForeArm
              {
                OFFSET -28.736639 2e-06 -0.002597
                CHANNELS 3 Zrotation Yrotation Xrotation
                JOINT RightHand
                {
                  OFFSET -27.133619 -0.0 0.002613
                  CHANNELS 3 Zrotation Yrotation Xrotation
                  JOINT RightHandThumb1
                  {
                    OFFSET -2.274032 -1.383988 3.163127
                    CHANNELS 3 Zrotation Yrotation Xrotation
                    JOINT RightHandThumb2
                    {
                      OFFSET -4.011429 -1.827466 1.640914
                      CHANNELS 3 Zrotation Yrotation Xrotation
                      JOINT RightHandThumb3
                      {
                        OFFSET -2.794935 -4e-06 -3e-06
                        CHANNELS 3 Zrotation Yrotation Xrotation
                        JOINT RightHandThumbEnd
                        {
                          OFFSET -3.183852 4e-06 1e-06
                          CHANNELS 3 Zrotation Yrotation Xrotation
                        }
                      }
                    }
                  }
                  JOINT RightHandIndex1
                  {
                    OFFSET -3.253266 -0.520057 2.282866
                    CHANNELS 3 Zrotation Yrotation Xrotation
                    JOINT RightHandIndex2
                    {
                      OFFSET -6.341917 0.012471 0.178266
                      CHANNELS 3 Zrotation Yrotation Xrotation
                      JOINT RightHandIndex3
                      {
                        OFFSET -3.654871 -8e-06 -0.0
                        CHANNELS 3 Zrotation Yrotation Xrotation
                        JOINT RightHandIndex4
                        {
                          OFFSET -2.327586 0.0 1e-06
                          CHANNELS 3 Zrotation Yrotation Xrotation
                          JOINT RightHandIndexEnd
                          {
                            OFFSET -2.76179 -0.180656 -0.113078
                            CHANNELS 3 Zrotation Yrotation Xrotation
                          }
                        }
                      }
                    }
                  }
                  JOINT RightHandMiddle1
                  {
                    OFFSET -3.168106 0.246593 1.00103
                    CHANNELS 3 Zrotation Yrotation Xrotation
                    JOINT RightHandMiddle2
                    {
                      OFFSET -6.180828 -0.258836 -1.000895
                      CHANNELS 3 Zrotation Yrotation Xrotation
                      JOINT RightHandMiddle3
                      {
                        OFFSET -4.348901 0.0 -0.0
                        CHANNELS 3 Zrotation Yrotation Xrotation
                        JOINT RightHandMiddle4
                        {
                          OFFSET -3.00024 -4e-06 -2e-06
                          CHANNELS 3 Zrotation Yrotation Xrotation
                          JOINT RightHandMiddleEnd
                          {
                            OFFSET -2.30252 -0.29437 -0.031706
                            CHANNELS 3 Zrotation Yrotation Xrotation
                          }
                        }
                      }
                    }
                  }
                  JOINT RightHandRing1
                  {
                    OFFSET -2.88569 -0.067952 -0.308858
                    CHANNELS 3 Zrotation Yrotation Xrotation
                    JOINT RightHandRing2
                    {
                      OFFSET -5.854198 -0.48613 -1.373731
                      CHANNELS 3 Zrotation Yrotation Xrotation
                      JOINT RightHandRing3
                      {
                        OFFSET -4.33881 -4e-06 -0.0
                        CHANNELS 3 Zrotation Yrotation Xrotation
                        JOINT RightHandRing4
                        {
                          OFFSET -2.654903 -4e-06 4e-06
                          CHANNELS 3 Zrotation Yrotation Xrotation
                          JOINT RightHandRingEnd
                          {
                            OFFSET -1.933568 0.077527 -5.2e-05
                            CHANNELS 3 Zrotation Yrotation Xrotation
                          }
                        }
                      }
                    }
                  }
                  JOINT RightHandPinky1
                  {
                    OFFSET -2.866425 -0.342796 -1.584145
                    CHANNELS 3 Zrotation Yrotation Xrotation
                    JOINT RightHandPinky2
                    {
                      OFFSET -5.091371 -1.332055 -1.772385
                      CHANNELS 3 Zrotation Yrotation Xrotation
                      JOINT RightHandPinky3
                      {
                        OFFSET -3.062664 -4e-06 1e-06
                        CHANNELS 3 Zrotation Yrotation Xrotation
                        JOINT RightHandPinky4
                        {
                          OFFSET -1.546529 4e-06 -2e-06
                          CHANNELS 3 Zrotation Yrotation Xrotation
                          JOINT RightHandPinkyEnd
                          {
                            OFFSET -1.945119 -0.157718 0.057211
                            CHANNELS 3 Zrotation Yrotation Xrotation
                          }
                        }
                      }
                    }
                  }
                }
              }
            }
          }
        }
      }
    }
    JOINT LeftLeg
    {
      OFFSET 10.043214 -8.434526 2.595655
      CHANNELS 3 Zrotation Yrotation Xrotation
      JOINT LeftShin
      {
        OFFSET -1e-06 -43.221752 -0.802913
        CHANNELS 3 Zrotation Yrotation Xrotation
        JOINT LeftFoot
        {
          OFFSET 1e-06 -42.155094 -3.481523
          CHANNELS 3 Zrotation Yrotation Xrotation
          JOINT LeftToeBase
          {
            OFFSET 0.0 -5.059472 13.231529
            CHANNELS 3 Zrotation Yrotation Xrotation
            JOINT LeftToeEnd
            {
              OFFSET -0.009607 -1.647619 6.513017
              CHANNELS 3 Zrotation Yrotation Xrotation
            }
          }
        }
      }
    }
    JOINT RightLeg
    {
      OFFSET -10.047278 -8.29526 2.620317
      CHANNELS 3 Zrotation Yrotation Xrotation
      JOINT RightShin
      {
        OFFSET 1e-06 -43.362206 -0.805556
        CHANNELS 3 Zrotation Yrotation Xrotation
        JOINT RightFoot
        {
          OFFSET 2e-06 -42.117393 -3.478398
          CHANNELS 3 Zrotation Yrotation Xrotation
          JOINT RightToeBase
          {
            OFFSET -0.0 -5.079609 13.284196
            CHANNELS 3 Zrotation Yrotation Xrotation
            JOINT RightToeEnd
            {
              OFFSET 0.009532 -1.634378 6.460591
              CHANNELS 3 Zrotation Yrotation Xrotation
            }
          }
        }
      }
    }
  }
}
MOTION
Frames: 4
Frame Time: 0.03333333333333333
0.0 0.0 0.0 0.0 -0.0 0.0 14.870871 94.275368 -14.729924 2.120305 -52.162041 2.381126 -2.053868 -0.153556 4.934003 -1.077242 0.059351 -2.539335 -4.883592 -0.579823 18.824877 -1.358182 2.645865 -3.085028 1.103395 4.900595 -3.361706 8.535513 0.994795 -8.155813 7.7e-05 -2.3e-05 6e-06 -0.027471 0.147696 -0.045154 0.784565 -3.560421 -10.647354 -0.852761 3.847586 -10.699385 1.291875 -12.552372 11.860701 -52.79797 -11.950787 -10.818734 80.131851 -88.050964 -80.049202 32.423286 -7.184468 15.729542 -5.882104 9.861283 0.702588 -10.936867 -0.360574 7.156208 1e-06 8.774824 -2e-06 -15.387568 17.637377 6.921371 -1.84403 2.498504 -2.507277 -10.163595 4.678942 4.62111 -20.976015 -1e-06 2e-06 -21.22628 2.451698 -3.594 0.0 -7e-06 0.0 -1.362681 2.240797 -0.746322 -21.334906 0.584908 3.008325 -13.821208 -2e-06 2e-06 -23.887159 -0.249074 -0.839484 -59.33567 2.279299 -0.620166 -0.294026 1.679686 0.833255 -14.218203 0.093215 1.300583 -34.212036 -0.287558 0.967171 -20.033209 0.964539 1.212843 -1e-06 1e-06 1e-06 -3.440389 0.788232 0.501655 -15.928181 -3.167309 2.999709 -6.338824 0.0 2e-06 -18.123442 3.648185 -4.905668 -3e-06 0.0 -0.0 4.831433 12.954098 18.861814 58.293964 7.178285 -1.573475 -0.761916 59.231621 -0.878751 -7.795621 -5.573783 8.869478 2.243541 -5.255036 -3.180155 14.282887 -0.826595 6.952501 -2e-06 -12.690601 -0.0 16.37714 -17.524805 2.947245 1.665665 -1.955921 -2.878297 4.727797 -4.170586 4.993922 11.020522 2e-06 0.0 12.109047 -3.735716 -2.866781 0.0 0.0 0.0 1.291984 -1.928548 -1.498088 14.800122 0.567467 3.865608 14.242566 -1.341738 -6.660654 19.63196 0.143924 -0.648243 51.928791 -0.654022 -6.188191 0.353029 -1.51115 -0.031939 20.222786 3.684308 2.316631 18.78727 3e-06 -0.0 10.751625 -0.479869 1.397905 0.0 -0.0 0.0 3.273804 0.305948 -0.580111 21.486803 11.830369 2.266133 8.162923 1e-06 0.0 18.399075 -3.798986 -4.940573 1e-06 -1e-06 -0.0 -1.283597 32.333694 -26.713926 -0.065564 0.364783 44.444359 -7.666368 12.354649 -18.051027 1.681073 -2.044873 0.367567 0.0 -0.0 2e-06 2.632242 -19.334309 -39.851398 -0.088998 -0.459721 51.699558 -0.781655 -2.553608 -11.840608 -1.517954 0.725745 -1.377627 -0.0 -0.0 -1e-06 
0.0 0.0 0.0 0.0 -0.0 0.0 14.960665 94.938324 -14.490726 2.773129 -61.517563 0.558474 -2.113402 -0.154223 4.593918 -1.015621 -0.317869 -2.958865 -4.893605 -0.866129 17.079006 -0.949395 2.664167 -1.045173 1.239892 4.898124 -3.229471 8.439485 1.032763 -7.607423 7.7e-05 -2.4e-05 6e-06 -0.035726 0.178437 0.00772 0.80985 -3.532027 -10.529771 -0.895653 3.886507 -10.548517 2.436088 -12.354861 11.415486 -52.408825 -9.477215 -11.837277 129.53154 -87.43998 -129.231949 30.059025 -5.323337 17.882345 -5.882104 9.861281 0.702591 -10.936867 -0.360576 7.156204 1e-06 8.774821 3e-06 -15.564908 17.805037 7.024862 -1.84403 2.498505 -2.507275 -10.163597 4.678944 4.621107 -20.976017 -2e-06 4e-06 -21.226276 2.451696 -3.593999 1e-06 -7e-06 -1e-06 -1.362681 2.240797 -0.746323 -21.334906 0.584909 3.008326 -13.82121 -1e-06 4e-06 -23.887159 -0.249078 -0.83948 -60.098228 2.177303 -0.820218 -0.294026 1.679688 0.833256 -14.218203 0.093216 1.300583 -34.212036 -0.287561 0.967173 -20.033207 0.964539 1.212841 -1e-06 1e-06 2e-06 -3.440385 0.788233 0.501656 -15.928181 -3.167308 2.999707 -6.338825 -3e-06 0.0 -18.123444 3.648184 -4.905668 -4e-06 1e-06 -1e-06 3.135264 11.88557 18.427122 60.489254 5.024411 -1.401618 -0.712316 66.065491 -0.61055 -9.357892 -5.942944 8.668388 2.24354 -5.255033 -3.180157 14.282881 -0.826591 6.952498 -2e-06 -12.690595 1e-06 16.59663 -17.458126 2.937055 1.665667 -1.955921 -2.878298 4.727797 -4.170584 4.993919 11.020517 4e-06 -1e-06 12.109043 -3.735713 -2.866781 -0.0 -0.0 -1e-06 1.291986 -1.928549 -1.498088 14.800118 0.567469 3.865605 14.24256 -1.341734 -6.660651 19.631954 0.143926 -0.648242 51.48111 -0.677721 -6.345881 0.353029 -1.511149 -0.03194 20.22278 3.684309 2.316629 18.787262 6e-06 1e-06 10.751621 -0.479867 1.397906 -0.0 -1e-06 1e-06 3.273806 0.305947 -0.580111 21.486799 11.830368 2.266131 8.162921 2e-06 -0.0 18.399069 -3.798981 -4.94057 3e-06 -1e-06 -0.0 0.314159 36.202747 -22.035921 -0.083516 0.389427 41.726315 -9.890372 15.744889 -18.046732 1.700846 -1.958144 -0.010451 -0.0 -0.0 2e-06 1.725055 -24.352127 -35.663368 -0.059953 -0.529762 54.371822 -1.010931 -10.037995 -13.976297 -1.504709 0.85914 -2.147172 -0.0 -0.0 -1e-06 
0.0 0.0 0.0 0.0 -0.0 0.0 14.303835 96.024933 -14.447634 2.895096 -70.893913 -0.624279 -1.903651 -0.109705 3.99385 -0.904426 -0.657625 -3.279232 -4.583053 -1.186733 15.371404 0.227152 2.37786 1.050289 0.995738 3.970864 -3.211226 8.342374 0.036327 -7.193527 7.7e-05 -2.3e-05 6e-06 -0.025117 0.15537 0.033576 0.836434 -3.526677 -10.343826 -0.90322 3.838907 -10.315304 2.879969 -11.931527 11.795705 -52.602222 -7.113277 -12.031163 124.372215 -87.836708 -123.737732 27.776491 -3.237569 18.794518 -5.882105 9.861281 0.702591 -10.936866 -0.360575 7.156202 -1e-06 8.774822 1e-06 -15.68345 18.106441 7.027356 -1.844031 2.498505 -2.507275 -10.163591 4.678945 4.621109 -20.976013 -1e-06 3e-06 -21.226273 2.451698 -3.594 0.0 -8e-06 1e-06 -1.362682 2.240797 -0.746322 -21.334904 0.584912 3.008322 -13.821206 -1e-06 1e-06 -23.887157 -0.249076 -0.839483 -60.582851 2.258685 -0.997776 -0.294025 1.679686 0.833256 -14.218202 0.093216 1.300579 -34.212032 -0.287558 0.96717 -20.033205 0.96454 1.212841 -2e-06 2e-06 -1e-06 -3.440387 0.788233 0.501656 -15.928179 -3.167307 2.999705 -6.338823 -1e-06 0.0 -18.123438 3.648183 -4.905667 -6e-06 1e-06 -1e-06 2.013388 10.456149 18.109404 62.585312 3.371541 -0.443791 -0.479276 71.163811 0.084181 -11.537266 -6.165171 7.332732 2.24354 -5.255032 -3.180154 14.282872 -0.826594 6.952494 0.0 -12.690596 -2e-06 16.543863 -17.529625 2.847248 1.665664 -1.955919 -2.878296 4.727793 -4.170585 4.99392 11.020513 1e-06 -2e-06 12.109038 -3.735716 -2.866782 -0.0 0.0 1e-06 1.291983 -1.928548 -1.498087 14.80011 0.567467 3.865603 14.242557 -1.341737 -6.660653 19.631945 0.143925 -0.648247 50.60294 -0.321114 -6.373683 0.35303 -1.51115 -0.03194 20.222769 3.684304 2.316629 18.787251 2e-06 -3e-06 10.751616 -0.479871 1.397904 -0.0 -1e-06 0.0 3.273802 0.305946 -0.580108 21.486788 11.830359 2.266128 8.162919 1e-06 2e-06 18.399063 -3.798985 -4.940573 4e-06 -1e-06 -2e-06 3.388885 37.414146 -16.69949 -0.043492 0.418368 39.029671 -12.686728 19.403439 -16.431316 1.720099 -1.906656 -1.347632 -0.0 -0.0 2e-06 -0.489025 -28.279232 -30.289209 -0.023397 -0.370738 52.963936 -0.311179 -18.06905 -15.146257 -1.484826 1.043161 -2.373923 0.0 0.0 -1e-06 
0.0 0.0 0.0 0.0 -0.0 0.0 13.051787 97.42585 -14.765255 2.677503 -80.840454 -1.433112 -1.571662 0.003031 3.321642 -0.82989 -0.903893 -3.52195 -4.196187 -1.356437 13.924338 2.035857 1.687305 3.283813 0.397911 2.500238 -3.192116 8.319342 -1.915083 -6.359808 7.7e-05 -2.3e-05 6e-06 -0.012291 0.109334 0.067398 0.825014 -3.56342 -10.223727 -0.86678 3.785125 -10.171736 2.22986 -10.798413 12.779524 -52.74514 -4.734036 -11.849464 55.683422 -88.279213 -54.898575 25.976049 -1.536999 18.67733 -5.882104 9.861278 0.702591 -10.936865 -0.360573 7.156201 -0.0 8.774819 -3e-06 -15.735791 18.240824 6.908288 -1.844032 2.498503 -2.507277 -10.163594 4.678942 4.621106 -20.976013 -1e-06 2e-06 -21.226273 2.451696 -3.593997 1e-06 -7e-06 -1e-06 -1.362681 2.240797 -0.746323 -21.3349 0.584912 3.008322 -13.821207 -1e-06 0.0 -23.887156 -0.249076 -0.839486 -60.441238 2.285969 -1.128422 -0.294025 1.679685 0.833254 -14.218202 0.093215 1.300581 -34.212032 -0.287561 0.967172 -20.033199 0.964539 1.212843 -2e-06 1e-06 1e-06 -3.440386 0.788234 0.501657 -15.928176 -3.167306 2.999706 -6.338823 -1e-06 2e-06 -18.123436 3.64818 -4.90567 -5e-06 1e-06 -3e-06 1.811153 9.133497 18.308771 63.967842 2.704618 0.455209 0.932609 73.58744 1.4462 -12.740522 -6.080219 6.075005 2.24354 -5.255033 -3.180158 14.282883 -0.826595 6.952501 -2e-06 -12.690595 -1e-06 16.288385 -17.599039 2.803266 1.665664 -1.955919 -2.878299 4.727796 -4.170584 4.99392 11.020519 3e-06 -2e-06 12.109043 -3.735713 -2.866783 -0.0 0.0 1e-06 1.291983 -1.928547 -1.498087 14.800118 0.567467 3.865604 14.242561 -1.341737 -6.660655 19.631952 0.143927 -0.648243 50.090252 -0.243588 -6.253456 0.353029 -1.511149 -0.031939 20.222778 3.684305 2.316629 18.787264 4e-06 -0.0 10.751622 -0.479869 1.397906 -0.0 -0.0 -1e-06 3.273803 0.305947 -0.58011 21.486801 11.830366 2.266134 8.162919 1e-06 -2e-06 18.399071 -3.798985 -4.940573 3e-06 -1e-06 -2e-06 7.033024 34.48893 -11.086534 -0.110442 0.17358 36.976406 -14.576841 24.024786 -12.33588 1.802008 -2.02832 -4.082979 -0.0 -1e-06 2e-06 -3.051885 -31.358242 -24.206829 0.087288 -0.003704 46.940552 -1.363787 -26.396486 -13.940065 -1.4329 1.205175 -2.359814 0.0 0.0 -1e-06 
